REM DIRINDEX 1\2,1\3,1\4,1\5,1\6
REM DIRNAME folder01,folder02,folder03,folder04,folder05,folder06
TITLE ""
FILE "Disc3Track48.mp3" MP3
  TRACK 01 AUDIO
    TITLE "3:cjc030_05525"
    INDEX 01 00:00:00
  TRACK 02 AUDIO
    TITLE "0:"
    INDEX 01 00:01:03
  TRACK 03 AUDIO
    TITLE "4:cjc030_05526"
    INDEX 01 00:01:11
  TRACK 04 AUDIO
    TITLE "0:"
    INDEX 01 00:02:12
  TRACK 05 AUDIO
    TITLE "5:cjc030_05527"
    INDEX 01 00:02:20
  TRACK 06 AUDIO
    TITLE "0:"
    INDEX 01 00:03:29
  TRACK 07 AUDIO
    TITLE "3:cjc030_05528"
    INDEX 01 00:04:03
  TRACK 08 AUDIO
    TITLE "0:"
    INDEX 01 00:05:10
  TRACK 09 AUDIO
    TITLE "4:cjc030_05529"
    INDEX 01 00:05:20
  TRACK 10 AUDIO
    TITLE "0:"
    INDEX 01 00:07:56
  TRACK 11 AUDIO
    TITLE "5:cjc030_05530"
    INDEX 01 00:07:64
  TRACK 12 AUDIO
    TITLE "0:"
    INDEX 01 00:08:73
  TRACK 13 AUDIO
    TITLE "6:cjc030_05531"
    INDEX 01 00:09:10
  TRACK 14 AUDIO
    TITLE "0:"
    INDEX 01 00:15:44
  TRACK 15 AUDIO
    TITLE "3:cjc030_05532"
    INDEX 01 00:16:18
  TRACK 16 AUDIO
    TITLE "0:"
    INDEX 01 00:17:33
  TRACK 17 AUDIO
    TITLE "4:cjc030_05533"
    INDEX 01 00:17:43
  TRACK 18 AUDIO
    TITLE "0:"
    INDEX 01 00:18:31
  TRACK 19 AUDIO
    TITLE "5:cjc030_05534"
    INDEX 01 00:18:39
  TRACK 20 AUDIO
    TITLE "0:"
    INDEX 01 00:19:56
  TRACK 21 AUDIO
    TITLE "3:cjc030_05535"
    INDEX 01 00:20:41
  TRACK 22 AUDIO
    TITLE "0:"
    INDEX 01 00:21:60
  TRACK 23 AUDIO
    TITLE "4:cjc030_05536"
    INDEX 01 00:21:70
  TRACK 24 AUDIO
    TITLE "0:"
    INDEX 01 00:24:45
  TRACK 25 AUDIO
    TITLE "5:cjc030_05537"
    INDEX 01 00:24:53
  TRACK 26 AUDIO
    TITLE "0:"
    INDEX 01 00:25:74
  TRACK 27 AUDIO
    TITLE "6:cjc030_05538"
    INDEX 01 00:26:15
  TRACK 28 AUDIO
    TITLE "0:"
    INDEX 01 00:28:25
  TRACK 29 AUDIO
    TITLE "3:cjc030_05539"
    INDEX 01 00:28:72
  TRACK 30 AUDIO
    TITLE "0:"
    INDEX 01 00:30:10
  TRACK 31 AUDIO
    TITLE "4:cjc030_05540"
    INDEX 01 00:30:18
  TRACK 32 AUDIO
    TITLE "0:"
    INDEX 01 00:31:31
  TRACK 33 AUDIO
    TITLE "5:cjc030_05541"
    INDEX 01 00:31:41
  TRACK 34 AUDIO
    TITLE "0:"
    INDEX 01 00:32:52
  TRACK 35 AUDIO
    TITLE "6:cjc030_05542"
    INDEX 01 00:32:66
  TRACK 36 AUDIO
    TITLE "0:"
    INDEX 01 00:37:44
  TRACK 37 AUDIO
    TITLE "3:cjc030_05543"
    INDEX 01 00:38:20
  TRACK 38 AUDIO
    TITLE "0:"
    INDEX 01 00:39:43
  TRACK 39 AUDIO
    TITLE "4:cjc030_05544"
    INDEX 01 00:39:52
  TRACK 40 AUDIO
    TITLE "0:"
    INDEX 01 00:40:46
  TRACK 41 AUDIO
    TITLE "5:cjc030_05545"
    INDEX 01 00:40:54
  TRACK 42 AUDIO
    TITLE "0:"
    INDEX 01 00:42:02
  TRACK 43 AUDIO
    TITLE "3:cjc030_05546"
    INDEX 01 00:42:63
  TRACK 44 AUDIO
    TITLE "0:"
    INDEX 01 00:44:05
  TRACK 45 AUDIO
    TITLE "4:cjc030_05547"
    INDEX 01 00:44:14
  TRACK 46 AUDIO
    TITLE "0:"
    INDEX 01 00:45:16
  TRACK 47 AUDIO
    TITLE "5:cjc030_05548"
    INDEX 01 00:45:24
  TRACK 48 AUDIO
    TITLE "0:"
    INDEX 01 00:46:41
  TRACK 49 AUDIO
    TITLE "6:cjc030_05549"
    INDEX 01 00:46:56
  TRACK 50 AUDIO
    TITLE "0:"
    INDEX 01 00:51:46
  TRACK 51 AUDIO
    TITLE "3:cjc030_05550"
    INDEX 01 00:52:22
  TRACK 52 AUDIO
    TITLE "0:"
    INDEX 01 00:53:31
  TRACK 53 AUDIO
    TITLE "4:cjc030_05551"
    INDEX 01 00:53:39
  TRACK 54 AUDIO
    TITLE "0:"
    INDEX 01 00:54:44
  TRACK 55 AUDIO
    TITLE "5:cjc030_05552"
    INDEX 01 00:54:52
  TRACK 56 AUDIO
    TITLE "0:"
    INDEX 01 00:55:63
  TRACK 57 AUDIO
    TITLE "3:cjc030_05553"
    INDEX 01 00:56:47
  TRACK 58 AUDIO
    TITLE "0:"
    INDEX 01 00:57:56
  TRACK 59 AUDIO
    TITLE "4:cjc030_05554"
    INDEX 01 00:57:66
  TRACK 60 AUDIO
    TITLE "0:"
    INDEX 01 00:59:55
  TRACK 61 AUDIO
    TITLE "5:cjc030_05555"
    INDEX 01 00:59:63
  TRACK 62 AUDIO
    TITLE "0:"
    INDEX 01 01:00:74
  TRACK 63 AUDIO
    TITLE "3:cjc030_05556"
    INDEX 01 01:01:58
  TRACK 64 AUDIO
    TITLE "0:"
    INDEX 01 01:02:73
  TRACK 65 AUDIO
    TITLE "4:cjc030_05557"
    INDEX 01 01:03:06
  TRACK 66 AUDIO
    TITLE "0:"
    INDEX 01 01:04:54
  TRACK 67 AUDIO
    TITLE "5:cjc030_05558"
    INDEX 01 01:04:64
  TRACK 68 AUDIO
    TITLE "0:"
    INDEX 01 01:06:04
  TRACK 69 AUDIO
    TITLE "6:cjc030_05559"
    INDEX 01 01:06:16
  TRACK 70 AUDIO
    TITLE "0:"
    INDEX 01 01:10:35
  TRACK 71 AUDIO
    TITLE "3:cjc030_05560"
    INDEX 01 01:11:07
  TRACK 72 AUDIO
    TITLE "0:"
    INDEX 01 01:12:30
  TRACK 73 AUDIO
    TITLE "4:cjc030_05561"
    INDEX 01 01:12:40
  TRACK 74 AUDIO
    TITLE "0:"
    INDEX 01 01:14:43
  TRACK 75 AUDIO
    TITLE "5:cjc030_05562"
    INDEX 01 01:14:49
  TRACK 76 AUDIO
    TITLE "0:"
    INDEX 01 01:15:72
  TRACK 77 AUDIO
    TITLE "3:cjc030_05563"
    INDEX 01 01:16:54
  TRACK 78 AUDIO
    TITLE "0:"
    INDEX 01 01:17:57
  TRACK 79 AUDIO
    TITLE "4:cjc030_05564"
    INDEX 01 01:17:63
  TRACK 80 AUDIO
    TITLE "0:"
    INDEX 01 01:19:50
  TRACK 81 AUDIO
    TITLE "5:cjc030_05565"
    INDEX 01 01:19:58
  TRACK 82 AUDIO
    TITLE "0:"
    INDEX 01 01:20:59
  TRACK 83 AUDIO
    TITLE "6:cjc030_05566"
    INDEX 01 01:20:73
  TRACK 84 AUDIO
    TITLE "0:"
    INDEX 01 01:25:08
  TRACK 85 AUDIO
    TITLE "3:cjc030_05567"
    INDEX 01 01:25:57
  TRACK 86 AUDIO
    TITLE "0:"
    INDEX 01 01:26:68
  TRACK 87 AUDIO
    TITLE "4:cjc030_05568"
    INDEX 01 01:27:03
  TRACK 88 AUDIO
    TITLE "0:"
    INDEX 01 01:28:31
  TRACK 89 AUDIO
    TITLE "5:cjc030_05569"
    INDEX 01 01:28:41
  TRACK 90 AUDIO
    TITLE "0:"
    INDEX 01 01:29:52
  TRACK 91 AUDIO
    TITLE "6:cjc030_05570"
    INDEX 01 01:29:64
  TRACK 92 AUDIO
    TITLE "0:"
    INDEX 01 01:34:18
